<svg xmlns="http://www.w3.org/2000/svg" width="1200" height="675" viewBox="0 0 1200 675">
  <defs>
    <linearGradient id="bg" x1="0" y1="0" x2="1" y2="1">
      <stop offset="0" stop-color="#0b2a2a"/>
      <stop offset="1" stop-color="#103a3a"/>
    </linearGradient>
    <linearGradient id="accent" x1="0" y1="0" x2="1" y2="0">
      <stop offset="0" stop-color="#31c48d"/>
      <stop offset="1" stop-color="#2dd4bf"/>
    </linearGradient>
  </defs>
  <rect width="1200" height="675" rx="28" fill="url(#bg)"/>
  <rect x="40" y="40" width="1120" height="90" rx="18" fill="#0f3535" opacity="0.9"/>
  <rect x="70" y="72" width="220" height="26" rx="13" fill="url(#accent)" opacity="0.9"/>
  <rect x="320" y="72" width="360" height="26" rx="13" fill="#1b5a5a" opacity="0.9"/>
  <rect x="40" y="160" width="1120" height="475" rx="22" fill="#0f3535" opacity="0.65"/>
  <g fill="#1b5a5a" opacity="0.8">
    <rect x="80" y="205" width="380" height="22" rx="11"/>
    <rect x="80" y="245" width="620" height="22" rx="11"/>
    <rect x="80" y="285" width="540" height="22" rx="11"/>
    <rect x="80" y="325" width="680" height="22" rx="11"/>
    <rect x="80" y="365" width="460" height="22" rx="11"/>
  </g>
  <g transform="translate(0,0)">
    <circle cx="930" cy="375" r="115" fill="#0b2a2a" opacity="0.8"/>
    <path d="M820 420c30-70 70-105 122-105 43 0 80 22 110 66" fill="none" stroke="url(#accent)" stroke-width="16" stroke-linecap="round"/>
    <path d="M840 410c20-40 55-62 98-62 31 0 57 13 79 40" fill="none" stroke="#31c48d" stroke-width="10" stroke-linecap="round" opacity="0.9"/>
    <circle cx="820" cy="420" r="8" fill="#2dd4bf"/>
    <circle cx="1052" cy="381" r="8" fill="#2dd4bf"/>
  </g>
  <text x="80" y="570" fill="#bfe8e8" font-size="28" font-family="system-ui, -apple-system, Segoe UI, Roboto, Helvetica, Arial, sans-serif">
    Add your screenshot at website/public/assets/screenshots/
  </text>
  <text x="80" y="610" fill="#8fd3d3" font-size="20" font-family="system-ui, -apple-system, Segoe UI, Roboto, Helvetica, Arial, sans-serif">
    This placeholder renders when an image file is missing.
  </text>
</svg>
